<svg xmlns="http://www.w3.org/2000/svg" viewBox="0 0 512 512" width="512" height="512">
<svg x="56" y="56" width="400" height="400" viewBox="463 268 275 276"><defs><linearGradient id="grapeGradient" x1="0" y1="0" x2="0.4" y2="1"><stop offset="0" stop-color="#6366F1"/><stop offset="1" stop-color="#8B5CF6"/></linearGradient></defs><g transform="translate(0,775) scale(0.1,-0.1)" fill="url(#grapeGradient)" stroke="none"><path d="M6595 4928 c-38 -11 -78 -29 -88 -39 -10 -10 -23 -19 -30 -19 -18 -1 -120 -98 -139 -133 -45 -83 -60 -123 -70 -183 -11 -76 -7 -187 12 -266 18 -75 -13 -188 -67 -238 -18 -17 -33 -35 -33 -40 0 -14 -108 -50 -148 -50 -21 0 -64 7 -96 15 -92 24 -106 11 -126 -110 -16 -96 28 -123 200 -124 186 -2 367 83 456 214 56 84 62 155 38 478 -6 73 -4 82 25 140 41 81 46 87 109 120 129 65 284 21 370 -107 63 -95 38 -254 -54 -341 -30 -28 -54 -56 -54 -63 0 -14 139 -152 154 -152 18 0 127 120 142 156 9 21 22 43 28 49 20 16 39 140 40 250 1 104 -33 215 -70 229 -8 3 -14 11 -14 18 0 20 -109 121 -164 153 -119 67 -280 84 -421 43z"/><path d="M5985 4733 c-51 -6 -148 -24 -184 -35 -40 -12 -171 -105 -171 -122 0 -6 -9 -17 -20 -24 -32 -20 -79 -126 -94 -211 -14 -80 -11 -152 13 -270 21 -103 -26 -210 -124 -280 -50 -36 -50 -36 -157 -36 -100 0 -109 2 -124 23 -8 12 -21 22 -28 22 -36 0 -105 119 -114 195 -8 72 23 163 73 218 23 26 47 47 54 47 6 0 11 5 11 10 0 6 9 10 19 10 11 0 23 5 26 10 9 15 148 12 181 -4 44 -21 68 -26 82 -17 14 8 47 183 39 205 -11 29 -155 63 -232 56 -135 -13 -266 -62 -321 -122 -117 -127 -157 -209 -162 -332 -4 -84 11 -199 28 -221 4 -5 11 -21 15 -33 14 -48 127 -202 147 -202 6 0 16 -6 22 -14 24 -30 205 -86 278 -86 70 0 204 28 249 53 52 27 109 68 109 76 0 5 15 18 33 29 41 24 102 142 118 227 10 55 8 160 -7 312 -12 125 41 223 150 280 52 27 164 29 213 4 49 -24 71 -19 79 18 3 14 15 57 27 94 23 77 21 82 -43 93 -19 3 -45 12 -57 20 -21 13 -60 15 -128 7z"/><path d="M6597 4172 c-23 -25 -50 -158 -37 -181 6 -12 26 -21 53 -25 220 -33 317 -301 165 -459 -16 -18 -36 -40 -42 -49 -14 -20 -168 -53 -195 -43 -25 11 -125 23 -138 18 -8 -3 -13 -24 -13 -54 0 -27 -7 -66 -16 -87 -15 -37 -15 -37 13 -59 36 -30 104 -43 215 -43 119 0 228 49 367 165 30 26 61 76 91 150 36 86 37 269 3 330 -13 22 -23 49 -23 60 0 72 -188 249 -278 262 -20 2 -54 11 -75 19 -50 19 -71 18 -90 -4z"/><path d="M6236 3701 c-3 -5 -36 -15 -72 -22 -98 -19 -114 -51 -68 -136 23 -45 -4 -169 -50 -224 -13 -16 -26 -32 -28 -37 -11 -29 -98 -70 -160 -77 -146 -16 -308 99 -308 218 0 45 -10 75 -26 81 -19 7 -162 -40 -186 -61 -24 -21 -18 -84 13 -145 10 -20 19 -45 19 -54 0 -9 17 -35 38 -58 20 -22 46 -52 57 -67 11 -14 35 -34 53 -44 17 -11 32 -22 32 -25 0 -6 48 -28 105 -48 77 -27 207 -32 299 -12 58 13 126 41 126 53 0 4 9 7 20 7 41 0 140 126 189 240 39 90 42 248 6 346 -25 68 -44 89 -59 65z"/><path d="M6735 3140 c-11 -5 -39 -14 -63 -20 -42 -11 -43 -12 -36 -43 3 -18 13 -44 20 -59 18 -36 18 -126 -1 -162 -8 -15 -15 -35 -15 -42 0 -14 -14 -33 -60 -80 -64 -66 -205 -94 -288 -57 -20 9 -50 21 -66 27 -36 14 -74 75 -111 179 -23 66 -37 70 -126 40 -96 -33 -102 -38 -94 -82 4 -20 11 -40 16 -45 5 -6 9 -22 9 -37 0 -15 7 -32 15 -39 8 -6 17 -22 21 -33 11 -36 124 -167 144 -167 5 0 13 -6 17 -13 9 -14 46 -33 83 -42 14 -4 40 -13 59 -22 58 -26 288 -13 307 18 3 5 14 9 24 9 11 0 45 17 76 38 31 20 67 44 80 52 31 19 97 122 117 180 37 112 29 340 -14 386 -24 25 -74 31 -114 14z"/></g></svg>
</svg>
